<?xml version="1.0" encoding="UTF-8"?>
<svg width="90px" height="16px" viewBox="0 0 90 16" version="1.1" xmlns="http://www.w3.org/2000/svg" xmlns:xlink="http://www.w3.org/1999/xlink">
    <!-- Generator: Sketch 49.3 (51167) - http://www.bohemiancoding.com/sketch -->
    <title>Group 2</title>
    <desc>Created with Sketch.</desc>
    <defs>
        <polygon id="path-1" points="0 0.0425993083 42.7765204 0.0425993083 42.7765204 14.4684444 0 14.4684444"></polygon>
    </defs>
    <g id="Symbols" stroke="none" stroke-width="1" fill="none" fill-rule="evenodd">
        <g id="Meny-/-Transperent" transform="translate(-20.000000, -13.000000)">
            <g id="Group-2" transform="translate(20.000000, 13.000000)">
                <path d="M49.4226105,2.40623377 C46.41236,2.0773064 44.0988407,3.67084175 43.535424,5.59284271 C43.0170126,7.36046176 43.8605138,8.22780183 45.9882895,8.9393747 C48.5812746,9.81594998 48.8882694,10.282328 48.6033906,11.2547956 C48.2598966,12.425974 47.0476923,12.8129293 45.6718606,12.69595 C43.840099,12.5398749 43.066039,11.5572487 43.7140533,9.84842713 L43.4461867,9.83580568 C43.4461867,9.83580568 42.2191354,11.0620875 42.1110299,11.7748918 C41.8926537,13.2172775 43.325554,14.475113 46.0040646,14.5685426 C48.2216962,14.6458105 50.321943,13.6225493 50.7665829,11.2860414 C51.085177,9.61246753 50.3864351,8.44005772 48.1361707,7.66922559 C45.7790381,6.8643771 45.4237902,6.48357864 45.6568588,5.68842713 C45.9483879,4.69394901 46.9847468,3.9568254 49.0240585,4.32330928 C49.824565,4.46691679 50.3304491,4.77414141 50.6696127,5.44938913 L50.7829765,5.46170274 L51.0418729,4.88604137 C51.4633142,3.45027417 51.2112227,2.60186628 49.4226105,2.40623377" id="Fill-1" fill="#FFFFFF"></path>
                <g id="Group-6" transform="translate(52.892812, 0.000000)" fill="#FFFFFF">
                    <path d="M2.21732236,10.660202 L3.3835934,4.07734488 C3.56825427,3.03561328 2.94977954,2.50366522 2.25938915,2.50366522 L1.63550142,2.50366522 L0.139500925,10.9484945 C-0.280548424,13.3200962 0.739880739,14.4726503 3.07845445,14.4726503 C3.7911155,14.4726503 4.33721059,14.0292063 4.47067988,13.2759211 L4.58852877,12.6108321 L3.72012778,12.6108321 C2.60674955,12.6108321 1.95425021,12.1455315 2.21732236,10.660202" id="Fill-2"></path>
                    <path d="M9.56509282,4.40981241 L12.0815225,4.40981241 C13.1503594,4.40981241 13.7266127,3.92219336 13.8562155,3.19076479 L13.9740644,2.52582973 L9.87657272,2.52582973 L10.3085307,0.0874266474 L10.0635534,0.0874266474 C9.7740349,0.0874266474 9.03137033,0.508706109 8.66730694,0.92983165 C8.24679361,1.4174507 7.95077946,2.08238576 7.82875481,2.76963925 L6.46220251,10.4827321 C5.97920762,13.2094276 6.89385116,14.5833189 9.54421408,14.5833189 C10.9249949,14.5833189 11.7984995,14.0515248 11.9752729,13.0539683 L12.1008547,12.3448581 L11.9895014,12.3448581 C11.5194977,12.6108321 10.7947734,12.6773256 10.0598417,12.6773256 C8.76829818,12.6773256 8.22576022,11.9682155 8.52409423,10.2834055 L9.56509282,4.40981241" id="Fill-4"></path>
                    <path d="M16.2564975,7.26903319 C16.5941145,5.73952862 18.1318725,4.09935546 20.0916904,4.09935546 C21.9624256,4.09935546 22.65328,5.22959115 22.4251604,6.51544012 C22.2681832,7.4020202 21.7310582,7.66799423 18.8502559,7.71247715 L16.1479281,7.75665224 L16.2564975,7.26903319 Z M33.486563,2.2820202 C30.5627659,2.2820202 28.1391307,4.22741703 27.0201848,6.77217893 C24.5167463,10.3660606 22.7502501,11.6974699 21.8080776,12.1890909 C21.1070158,12.5047811 20.2180454,12.7218086 19.0987902,12.7218086 C16.8717244,12.7218086 15.7383954,11.3251371 15.8873304,9.35234247 L18.8270573,9.35234247 C22.902433,9.35234247 24.0354527,8.48808081 24.4046197,6.40446368 C24.8248238,4.03286195 22.9525419,2.2820202 20.6363935,2.2820202 C17.4741148,2.2820202 14.617439,4.83078403 13.9380293,8.66555075 C13.333319,12.0787302 15.2056009,14.5833189 18.4793875,14.5833189 C18.9019114,14.5833189 19.2921119,14.5571525 19.655866,14.5120539 C19.6533914,14.5134392 19.6492157,14.5152862 19.6507623,14.5152862 C19.7059749,14.5082059 19.7624249,14.5003559 19.8193388,14.4918903 C19.844084,14.4885041 19.8688291,14.4846561 19.8935743,14.4811159 C21.4249913,14.2491582 23.4742012,13.6150072 26.3868629,10.1564214 C26.6142092,13.0014815 28.9787654,14.5833189 31.1068505,14.5833189 C33.6678214,14.5833189 34.7941909,13.2536027 34.9276602,12.5000096 L35.0772138,11.6576046 L34.9657059,11.6576046 C34.2386617,12.3670226 33.088475,12.6996441 31.7970862,12.6996441 C29.9484669,12.6996441 28.0460269,11.36962 28.5958338,8.26658971 C29.0160378,5.89468013 30.9036307,4.16600289 33.2641658,4.16600289 C34.4223946,4.16600289 35.7519838,4.83078403 36.0181491,5.71751804 L36.1293477,5.71751804 L36.2784374,4.87526696 C36.5812565,3.16860029 35.268061,2.2820202 33.486563,2.2820202 Z" id="Fill-5"></path>
                </g>
                <path d="M22.6160075,7.26903319 C22.9537792,5.73952862 24.4915372,4.09935546 26.4513551,4.09935546 C28.3220903,4.09935546 29.0126353,5.22959115 28.7848251,6.51544012 C28.6276932,7.4020202 28.0907229,7.66799423 25.2099205,7.71247715 L22.5074381,7.75665224 L22.6160075,7.26903319 Z M25.1865673,9.35234247 C29.2620976,9.35234247 30.3951174,8.48808081 30.7642844,6.40446368 C31.1843338,4.03286195 29.3122066,2.2820202 26.9959036,2.2820202 C23.8336248,2.2820202 20.976949,4.83078403 20.2973846,8.66555075 C19.6928291,12.0787302 21.5651109,14.5833189 24.8388976,14.5833189 C27.5112218,14.5833189 29.0163471,13.6303992 29.2361152,12.389341 L29.3934017,11.5024531 L29.2820484,11.5024531 C28.4999462,12.1455315 27.2844942,12.7218086 25.4583002,12.7218086 C23.2312345,12.7218086 22.0979054,11.3251371 22.2468405,9.35234247 L25.1865673,9.35234247 Z" id="Fill-7" fill="#FFFFFF"></path>
                <g id="Group-13" transform="translate(0.000000, 0.769601)">
                    <mask id="mask-2" fill="white">
                        <use xlink:href="#path-1"></use>
                    </mask>
                    <g id="Clip-9"></g>
                    <path d="M37.7353096,7.54270322 C40.2158588,4.69625782 42.7765204,1.73637326 42.7765204,1.73637326 L42.7765204,1.63508816 L41.6147345,1.6350938 C40.6779749,1.63355459 40.2110644,1.94739779 39.8463824,2.41731602 C39.8463824,2.41731602 38.5208143,3.93281385 36.8454112,5.7981722 C35.9443776,4.00484848 35.267133,2.58047138 35.267133,2.58047138 C35.0421066,2.03097643 34.5184368,1.63540164 33.6670481,1.63540164 L32.5796524,1.63540164 L32.5796524,1.72913901 C32.5796524,1.72913901 34.0171924,4.59405483 35.4270487,7.36738817 C33.0261481,10.0045022 30.4710541,12.7044156 30.0998765,12.6745551 L30.0898238,12.7524387 C30.2234477,13.0396537 30.4418239,13.6534873 31.3512091,13.6534873 C32.2270336,13.6534873 32.7301339,13.1630976 33.2592167,12.6126792 C33.6307037,12.2258778 34.8688904,10.8230495 36.3347327,9.14716691 C37.1683358,10.7744108 37.8644485,12.1101299 38.0594714,12.420279 C38.6643363,13.3828956 39.2452293,13.6531794 39.7735388,13.6531794 C40.3946427,13.6531794 40.8536657,13.2346705 41.074207,13.0287253 L41.074207,12.9448389 C40.5087798,12.6833285 39.0494331,10.0763829 37.7353096,7.54270322" id="Fill-8" fill="#FFFFFF" mask="url(#mask-2)"></path>
                    <path d="M4.26869738,5.90345358 C4.09656376,7.07063011 3.00638413,7.8777874 1.83408146,7.70616643 C0.661314808,7.53500722 -0.149089681,6.45033189 0.0230439444,5.28330928 C0.195022912,4.11659452 1.28520254,3.30959115 2.45781453,3.48075036 C3.62996255,3.65206349 4.44098567,4.73689274 4.26869738,5.90345358" id="Fill-10" fill="#FFFFFF" mask="url(#mask-2)"></path>
                    <path d="M7.31962283,1.44392496 C7.2211061,2.11178451 6.5967544,2.57446849 5.92523221,2.47611352 C5.25293673,2.37775854 4.78896469,1.75622896 4.88763608,1.08821549 C4.98568883,0.41974026 5.61019519,-0.0423280423 6.28233602,0.0557190957 C6.95432218,0.154074074 7.41813956,0.775141895 7.31962283,1.44392496" id="Fill-11" fill="#FFFFFF" mask="url(#mask-2)"></path>
                    <path d="M7.37545413,12.6426936 C7.20301119,13.8092544 6.11221294,14.6167196 4.93991026,14.4455604 C3.76760758,14.2739394 2.95704844,13.1892641 3.12902741,12.0222415 C3.30116103,10.8555267 4.39134066,10.0483694 5.56379799,10.2196825 C6.73594601,10.3913035 7.54774241,11.4759788 7.37545413,12.6426936" id="Fill-12" fill="#FFFFFF" mask="url(#mask-2)"></path>
                </g>
                <path d="M14.8743248,12.5363348 C14.7023459,13.7032035 13.6117023,14.5105147 12.4398636,14.3385859 C11.2669422,14.1674266 10.4565378,13.0825974 10.628826,11.9158826 C10.801269,10.74886 11.890366,9.94170274 13.0632873,10.1131698 C14.23559,10.2844829 15.0469224,11.3693122 14.8743248,12.5363348" id="Fill-14" fill="#FFFFFF"></path>
                <path d="M11.4140214,3.75457431 C10.4996872,3.6208177 9.86806656,2.77548822 10.0023091,1.86535835 C10.1365517,0.955844156 10.9860845,0.326926407 11.8998001,0.46006734 C12.8141343,0.593516114 13.4463736,1.43976912 13.3122856,2.34912939 C13.1783524,3.25925926 12.3285103,3.88817701 11.4140214,3.75457431 Z" id="Fill-15" fill="#FFFFFF"></path>
                <path d="M14.3749363,7.99799904 C13.7031047,7.89964406 13.2385141,7.27811448 13.3370308,6.60979317 C13.4358569,5.9410101 14.0603632,5.4789418 14.7320401,5.57698894 C15.4037169,5.67519 15.8673796,6.29656566 15.7691722,6.96504089 C15.6701915,7.63367003 15.0464584,8.09604618 14.3749363,7.99799904 Z" id="Fill-16" fill="#FFFFFF"></path>
                <path d="M8.1569377,9.30785955 C7.21151735,9.16979317 6.55716212,8.29460317 6.69588976,7.35368927 C6.83415342,6.41277537 7.71399906,5.76184704 8.65941941,5.90022126 C9.60499442,6.03844156 10.2590403,6.91301587 10.1196941,7.85423761 C9.98127574,8.79515152 9.10235805,9.44607985 8.1569377,9.30785955 Z" id="Fill-17" fill="#FFFFFF"></path>
            </g>
        </g>
    </g>
</svg>